# xmcd
#
# Track frame offsets:
#	150
#	18456
#	47036
#	106591
#	145147
#	179577
#	209507
#	242213
#	281218
#
# Disc length: 4043 seconds
#
# Revision: 0
# Processed by: cddbd v1.5.2PL0 Copyright (c) Steve Scherf et al.
# Submitted via: audiograbber 1.83.01
#
DISCID=850fc909
DTITLE=Grateful Dead - 94-12-11 Oakland Coliseum Arena, Oakland CA
DYEAR=1900
DGENRE=
TTITLE0=Help On The Way
TTITLE1=Slipknot!
TTITLE2=Franklin's Tower
TTITLE3=Little Red Rooster
TTITLE4=Lazy River Road
TTITLE5=Black Throated Wind
TTITLE6=If The Shoe Fits
TTITLE7=Tennessee Jed
TTITLE8=Promised Land
EXTD=
EXTT0=
EXTT1=
EXTT2=
EXTT3=
EXTT4=
EXTT5=
EXTT6=
EXTT7=
EXTT8=
PLAYORDER=
